<svg xmlns="http://www.w3.org/2000/svg" width="16" height="16" viewBox="0 0 1024 1024"><path transform="matrix(1 0 0 -1 0 960)" d="M215.68 821.52c-5.889 6.617-14.429 10.764-23.938 10.764-17.673 0-32-14.327-32-32 0-8.434 3.263-16.106 8.595-21.823l-0.017 0.019 66.96-73.68c-27.204-45.92-43.28-101.215-43.28-160.263 0-0.189 0-0.377 0-0.566v0.029c0-141.36-33.040-249.52-55.24-287.76-5.477-9.237-8.714-20.36-8.714-32.24 0-35.33 28.627-63.974 63.951-64h163.203c15.344-73.633 79.704-128.16 156.8-128.16s141.456 54.527 156.618 127.12l0.182 1.040h61.76l77.76-85.52c5.889-6.617 14.429-10.764 23.938-10.764 17.673 0 32 14.327 32 32 0 8.434-3.263 16.106-8.595 21.823l0.017-0.019zM512 96c-41.537 0.013-76.906 26.404-90.269 63.332l-0.211 0.668h180.96c-13.574-37.596-48.943-63.987-90.478-64h-0.002zM192 224c30.8 52.96 64 175.68 64 320 0 0.111 0 0.242 0 0.373 0 40.034 9.24 77.911 25.704 111.612l-0.664-1.505 391.32-430.48zM856 242.92c-3.475-1.388-7.503-2.195-11.718-2.2h-0.002c-13.456 0.014-24.967 8.332-29.684 20.104l-0.076 0.216c-29.12 74.2-46.52 179.96-46.52 282.96 0 0.022 0 0.048 0 0.073 0 141.385-114.615 256-256 256-46.432 0-89.976-12.361-127.522-33.972l1.242 0.659c-4.406-2.433-9.658-3.865-15.245-3.865-17.673 0-32 14.327-32 32 0 11.637 6.212 21.824 15.501 27.424l0.144 0.080c45.387 26.201 99.828 41.659 157.88 41.659 176.731 0 320-143.269 320-320 0-0.021 0-0.041 0-0.062v0.003c0-141.4 32.2-234.36 42.080-259.52 1.402-3.467 2.215-7.487 2.215-11.698 0-13.46-8.31-24.979-20.079-29.706l-0.215-0.076z"/></svg>
