<svg xmlns="http://www.w3.org/2000/svg" width="16" height="16" viewBox="0 0 1024 1024"><path transform="matrix(1 0 0 -1 0 960)" d="M624 288h-93.88l-57.6-96h103.48c0.003 0 0.006 0 0.010 0 17.673 0 32-14.327 32-32 0-6.087-1.699-11.777-4.65-16.621l0.080 0.141-96-160c-5.697-9.367-15.849-15.528-27.44-15.528-17.678 0-32.008 14.331-32.008 32.008 0 6.087 1.699 11.777 4.648 16.621l-0.080-0.141 66.92 111.52h-103.48c-0.003 0-0.006 0-0.010 0-17.673 0-32 14.327-32 32 0 6.087 1.699 11.777 4.65 16.621l-0.080-0.141 66.92 111.52h-148c-115 0-210.68 91.72-211.48 206.56-0.002 0.355-0.003 0.775-0.003 1.195 0 94.058 62.324 173.56 147.928 199.461l1.476 0.384c1.332 0.4 2.862 0.63 4.446 0.63 8.837 0 16-7.163 16-16 0-1.331-0.162-2.624-0.469-3.86l0.023 0.11c-4.781-19.328-8.138-41.943-9.361-65.123l-0.039-0.917c-0.039-0.6-0.062-1.3-0.062-2.006 0-16.976 12.992-30.918 29.575-32.425l0.126-0.009h2.4c17.275 0.19 31.326 13.739 32.316 30.792l0.004 0.088c8.152 161.368 140.975 289.12 303.636 289.12 167.895 0 304-136.105 304-304 0-167.893-136.103-303.998-303.996-304v0z"/></svg>
