<svg xmlns="http://www.w3.org/2000/svg" width="16" height="16" viewBox="0 0 1024 1024"><path transform="matrix(1 0 0 -1 0 960)" d="M608 576v192c0 17.673 14.327 32 32 32s32-14.327 32-32v0-160h160c17.673 0 32-14.327 32-32s-14.327-32-32-32v0h-192c-17.673 0-32 14.327-32 32v0zM384 352h-192c-17.673 0-32-14.327-32-32s14.327-32 32-32v0h160v-160c0-17.673 14.327-32 32-32s32 14.327 32 32v0 192c0 17.673-14.327 32-32 32v0zM832 352h-192c-17.673 0-32-14.327-32-32v0-192c0-17.673 14.327-32 32-32s32 14.327 32 32v0 160h160c17.673 0 32 14.327 32 32s-14.327 32-32 32v0zM384 800c-17.673 0-32-14.327-32-32v0-160h-160c-17.673 0-32-14.327-32-32s14.327-32 32-32v0h192c17.673 0 32 14.327 32 32v0 192c0 17.673-14.327 32-32 32v0z"/></svg>
