<svg xmlns="http://www.w3.org/2000/svg" width="16" height="16" viewBox="0 0 1024 1024"><path transform="matrix(1 0 0 -1 0 960)" d="M928 736h-832c-35.346 0-64-28.654-64-64v0-512c0-17.673 14.327-32 32-32s32 14.327 32 32v0 64h64v-64c0-17.673 14.327-32 32-32s32 14.327 32 32v0 64h64v-64c0-17.673 14.327-32 32-32s32 14.327 32 32v0 64h64v-64c0-17.673 14.327-32 32-32s32 14.327 32 32v0 64h64v-64c0-17.673 14.327-32 32-32s32 14.327 32 32v0 64h64v-64c0-17.673 14.327-32 32-32s32 14.327 32 32v0 64h64v-64c0-17.673 14.327-32 32-32s32 14.327 32 32v0 64h64v-64c0-17.673 14.327-32 32-32s32 14.327 32 32v0 512c0 35.346-28.654 64-64 64v0zM96 672h832v-384h-832zM448 352c17.673 0 32 14.327 32 32v0 192c0 17.673-14.327 32-32 32v0h-256c-17.673 0-32-14.327-32-32v0-192c0-17.673 14.327-32 32-32v0zM224 544h192v-128h-192zM576 352h256c17.673 0 32 14.327 32 32v0 192c0 17.673-14.327 32-32 32v0h-256c-17.673 0-32-14.327-32-32v0-192c0-17.673 14.327-32 32-32v0zM608 544h192v-128h-192z"/></svg>
